<svg width="200" height="200" viewBox="0 0 200 200" fill="none" xmlns="http://www.w3.org/2000/svg">
<g clip-path="url(#clip0_1_2)">
<path d="M183.333 200V194.444C183.333 185.604 179.821 177.125 173.57 170.874C167.319 164.623 158.841 161.111 150 161.111H50C41.1595 161.111 32.681 164.623 26.4298 170.874C20.1786 177.125 16.6667 185.604 16.6667 194.444V200H183.333ZM148.611 113.528C155.211 114.683 163.161 114.244 162.033 118.622C159.372 128.922 147.567 125.106 145.483 125.222C143.4 125.333 148.611 113.528 148.611 113.528Z" fill="#66757F"/>
<path d="M150.344 114.694C160.761 116.083 164.461 117.006 156.822 120.017C152.533 121.711 144.361 146.7 138.317 142.894C132.278 139.089 150.344 114.694 150.344 114.694Z" fill="#292F33"/>
<path d="M51.4167 113.528C44.8167 114.683 36.8667 114.244 37.9944 118.622C40.6556 128.922 52.4611 125.106 54.5444 125.222C56.6278 125.333 51.4167 113.528 51.4167 113.528Z" fill="#66757F"/>
<path d="M49.6833 114.694C39.2667 116.083 35.5667 117.006 43.2056 120.017C47.4944 121.711 55.6667 146.7 61.7111 142.894C67.7556 139.089 49.6833 114.694 49.6833 114.694Z" fill="#292F33"/>
<path d="M120.95 22.3167C110.072 18.7944 84.4722 19.7556 78.0722 28.0778C61.4333 28.4 41.9167 43.4333 39.3556 63.2722C36.8222 82.9056 42.4667 92.0222 44.4778 106.789C46.75 123.517 56.1556 128.867 63.6778 131.106C74.4944 145.394 85.9944 144.783 105.3 144.783C143.006 144.783 160.961 119.556 162.55 76.7111C163.506 50.7944 148.3 31.1667 120.95 22.3167Z" fill="white"/>
<path d="M142.511 78.5389C138.861 73.4889 134.194 69.4222 123.956 67.9778C127.794 69.7389 131.472 75.8167 131.956 79.1778C132.433 82.5389 132.917 85.2556 129.878 81.9C117.7 68.4389 104.439 73.7389 91.3 65.5167C82.1222 59.7722 79.3278 53.4222 79.3278 53.4222C79.3278 53.4222 78.2056 61.9 64.2889 70.5389C60.2556 73.0444 55.4389 78.6222 52.7722 86.8556C50.85 92.7778 51.45 98.0556 51.45 107.078C51.45 133.411 73.15 155.556 99.9278 155.556C126.706 155.556 148.406 133.222 148.406 107.078C148.383 90.7 146.672 84.3 142.511 78.5389Z" fill="white"/>
<path d="M105.189 119.806H94.5111C93.8024 119.806 93.1227 119.524 92.6216 119.023C92.1204 118.522 91.8389 117.842 91.8389 117.133V116.167C91.8389 114.694 93.0333 113.489 94.5111 113.489H105.189C106.661 113.489 107.867 114.689 107.867 116.167V117.133C107.867 117.485 107.797 117.833 107.663 118.157C107.528 118.482 107.331 118.777 107.082 119.025C106.833 119.273 106.538 119.47 106.213 119.604C105.888 119.738 105.54 119.806 105.189 119.806Z" fill="#292F33"/>
<path fill-rule="evenodd" clip-rule="evenodd" d="M42.5389 82.1556C43.3611 82.9722 47.4722 85.4389 48.2944 87.9C49.1167 90.3611 50.7667 104.311 55.7 108.417C60.7889 112.65 79.9778 111.072 83.6556 109.244C91.8778 105.144 92.8889 93.7 94.3445 87.9C95.1667 84.6167 100.1 84.6167 100.1 84.6167C100.1 84.6167 105.033 84.6167 105.856 87.9C107.311 93.7 108.322 105.144 116.544 109.239C120.222 111.072 139.411 112.65 144.511 108.422C149.439 104.317 151.083 90.3667 151.906 87.9C152.717 85.4389 156.839 82.9778 157.656 82.1556C158.478 81.3333 158.478 78.05 157.656 77.2278C156.011 75.5889 136.611 74.1222 115.722 76.4056C111.556 76.8611 109.972 78.0445 100.1 78.0445C90.2333 78.0445 88.6444 76.8556 84.4778 76.4056C63.5944 74.1222 44.1889 75.5833 42.5444 77.2278C41.7167 78.05 41.7167 81.3389 42.5389 82.1556Z" fill="#292F33"/>
<path d="M43.6556 46.6389C43.6556 46.6389 51.2056 -2.81111 76.6111 0.127782C96.1222 2.38334 103.778 4.71111 120.128 0.66667C130.944 -2.01111 142.711 6.97778 149.806 24.9944C152.64 32.294 154.913 39.7991 156.606 47.4444C156.606 47.4444 178.483 45.3056 179.744 57.0667C181.011 68.8278 155.556 83.2667 91.4722 83.2667C55.5556 83.2611 18.5 70.1667 16.7389 59.2056C14.9778 48.2444 43.6556 46.6389 43.6556 46.6389Z" fill="#66757F"/>
<path d="M45.1389 39.7222C45.1389 39.7222 43.6389 45.8556 42.8833 50.1167C42.1278 54.3833 44.1389 57.3167 57.9111 60.25C76.1722 64.1389 117.239 64.0944 141.567 58.1222C151.339 55.7222 157.6 54.1222 156.85 49.3278C155.922 43.3944 155.761 43.4056 153.844 37.0611C153.844 37.0611 145.639 39.85 134.806 42.3944C120.028 45.8611 79.45 47.4556 59.9111 43.1944C49.5 40.9167 45.1389 39.7222 45.1389 39.7222ZM44.3833 117.239C42.4167 118.044 60.6111 124.894 85.9389 125.339C112.444 125.806 120.572 127.506 114.528 133.444C108.161 139.694 109.794 149.522 110.244 152.433C110.694 155.344 121.617 163.078 122.511 166.656C123.406 170.239 115.683 199.772 115.683 199.772L67.1889 198.372C52.9389 149.239 51.1722 151.144 44.3833 122.794C43.0444 117.194 44.3833 117.239 44.3833 117.239Z" fill="#292F33"/>
<path d="M38.8278 117.467C36.8611 118.278 55.0556 125.122 80.3833 125.567C106.889 126.033 115.017 127.733 108.972 133.672C102.606 139.922 105.283 149.75 105.733 152.661C106.183 155.572 116.061 163.306 116.961 166.889C117.85 170.467 110.122 200 110.122 200L61.6278 198.6C47.3778 149.467 45.6111 151.372 38.8222 123.022C37.4889 117.422 38.8278 117.467 38.8278 117.467Z" fill="#66757F"/>
<path d="M155.844 117.239C157.811 118.044 139.617 124.894 114.294 125.339C87.7889 125.806 79.6611 127.506 85.7056 133.444C92.0722 139.694 102.239 149.511 101.794 152.422C101.344 155.333 78.6167 163.078 77.7222 166.656C76.8278 170.239 84.55 199.772 84.55 199.772L133.044 198.372C147.294 149.239 149.061 151.144 155.844 122.794C157.183 117.194 155.844 117.239 155.844 117.239Z" fill="#292F33"/>
<path d="M160.878 117.239C162.844 118.044 144.65 124.894 119.328 125.339C92.8222 125.806 84.6944 127.506 90.7389 133.444C97.1056 139.694 107.278 149.511 106.828 152.422C106.378 155.333 83.65 163.078 82.7556 166.656C81.8611 170.239 89.5833 199.772 89.5833 199.772L137.678 199.828C151.928 150.694 154.094 151.144 160.883 122.794C162.217 117.194 160.878 117.239 160.878 117.239Z" fill="#66757F"/>
<path d="M2.58203 198V195.539L5.76562 194.992V172.59L2.58203 172.043V169.562H23.9688V176.398H20.8828L20.4531 172.551H9.61328V182.395H20.0234V185.422H9.61328V194.992L12.7969 195.539V198H2.58203ZM26.8398 198V195.539L30.0234 194.992V179.895L26.8398 179.348V176.867H33.8711V194.992L37.0547 195.539V198H26.8398ZM29.8281 171.652V167.531H33.8711V171.652H29.8281ZM39.7109 198V195.539L42.8945 194.992V179.895L39.7109 179.348V176.867H46.332L46.6055 180.012C47.3086 178.892 48.1875 178.026 49.2422 177.414C50.3099 176.789 51.5208 176.477 52.875 176.477C55.1536 176.477 56.918 177.147 58.168 178.488C59.418 179.816 60.043 181.874 60.043 184.66V194.992L63.2266 195.539V198H53.0117V195.539L56.1953 194.992V184.738C56.1953 182.876 55.8242 181.555 55.082 180.773C54.3529 179.992 53.2331 179.602 51.7227 179.602C50.6159 179.602 49.6328 179.868 48.7734 180.402C47.9271 180.936 47.25 181.665 46.7422 182.59V194.992L49.9258 195.539V198H39.7109ZM72.7969 198.41C70.5964 198.41 68.9232 197.876 67.7773 196.809C66.6315 195.728 66.0586 194.211 66.0586 192.258C66.0586 190.253 66.8789 188.645 68.5195 187.434C70.1602 186.21 72.4388 185.598 75.3555 185.598H79.125V183.527C79.125 182.251 78.7344 181.262 77.9531 180.559C77.1849 179.855 76.0977 179.504 74.6914 179.504C73.806 179.504 73.0378 179.615 72.3867 179.836C71.7357 180.044 71.1432 180.337 70.6094 180.715L70.1992 183.664H67.2305V178.82C68.181 178.052 69.2878 177.473 70.5508 177.082C71.8138 176.678 73.2135 176.477 74.75 176.477C77.3151 176.477 79.3268 177.089 80.7852 178.312C82.2435 179.536 82.9727 181.288 82.9727 183.566V193.742C82.9727 194.016 82.9727 194.283 82.9727 194.543C82.9857 194.803 83.0052 195.064 83.0312 195.324L85.082 195.539V198H79.5547C79.4375 197.427 79.3464 196.913 79.2812 196.457C79.2161 196.001 79.1706 195.546 79.1445 195.09C78.4023 196.04 77.4714 196.835 76.3516 197.473C75.2448 198.098 74.0599 198.41 72.7969 198.41ZM73.3633 195.188C74.6393 195.188 75.8047 194.882 76.8594 194.27C77.9141 193.658 78.6693 192.922 79.125 192.062V188.234H75.2188C73.4479 188.234 72.1198 188.658 71.2344 189.504C70.349 190.35 69.9062 191.294 69.9062 192.336C69.9062 193.26 70.1927 193.97 70.7656 194.465C71.3385 194.947 72.2044 195.188 73.3633 195.188ZM87.875 198V195.539L91.0586 194.992V170.559L87.875 170.012V167.531H94.9062V194.992L98.0898 195.539V198H87.875ZM110.941 198V195.539L114.125 194.992V172.59L110.941 172.043V169.562H114.125H123.207C126.176 169.562 128.493 170.207 130.16 171.496C131.84 172.772 132.68 174.693 132.68 177.258C132.68 178.521 132.276 179.654 131.469 180.656C130.674 181.646 129.62 182.382 128.305 182.863C129.451 183.098 130.434 183.56 131.254 184.25C132.074 184.927 132.706 185.76 133.148 186.75C133.604 187.727 133.832 188.801 133.832 189.973C133.832 192.577 132.986 194.569 131.293 195.949C129.6 197.316 127.309 198 124.418 198H110.941ZM117.973 194.992H124.418C126.176 194.992 127.536 194.562 128.5 193.703C129.477 192.831 129.965 191.6 129.965 190.012C129.965 188.345 129.555 187.036 128.734 186.086C127.927 185.135 126.684 184.66 125.004 184.66H117.973V194.992ZM117.973 181.652H124.203C125.583 181.652 126.697 181.255 127.543 180.461C128.402 179.654 128.832 178.56 128.832 177.18C128.832 175.643 128.35 174.497 127.387 173.742C126.423 172.974 125.03 172.59 123.207 172.59H117.973V181.652ZM146.176 198.41C144.223 198.41 142.536 197.954 141.117 197.043C139.711 196.118 138.624 194.849 137.855 193.234C137.087 191.607 136.703 189.751 136.703 187.668V187.238C136.703 185.155 137.087 183.306 137.855 181.691C138.624 180.064 139.711 178.788 141.117 177.863C142.536 176.939 144.21 176.477 146.137 176.477C148.09 176.477 149.77 176.939 151.176 177.863C152.595 178.788 153.689 180.057 154.457 181.672C155.225 183.286 155.609 185.142 155.609 187.238V187.668C155.609 189.764 155.225 191.626 154.457 193.254C153.689 194.868 152.602 196.132 151.195 197.043C149.789 197.954 148.116 198.41 146.176 198.41ZM146.176 195.402C147.4 195.402 148.422 195.07 149.242 194.406C150.076 193.729 150.701 192.811 151.117 191.652C151.547 190.48 151.762 189.152 151.762 187.668V187.238C151.762 185.754 151.547 184.432 151.117 183.273C150.701 182.102 150.076 181.184 149.242 180.52C148.409 179.842 147.374 179.504 146.137 179.504C144.913 179.504 143.884 179.842 143.051 180.52C142.217 181.184 141.592 182.102 141.176 183.273C140.759 184.432 140.551 185.754 140.551 187.238V187.668C140.551 189.152 140.759 190.48 141.176 191.652C141.592 192.811 142.217 193.729 143.051 194.406C143.897 195.07 144.939 195.402 146.176 195.402ZM167.133 198.41C165.714 198.41 164.385 198.267 163.148 197.98C161.911 197.694 160.596 197.251 159.203 196.652L159.164 191.633H162.074L162.797 194.66C163.526 194.96 164.229 195.181 164.906 195.324C165.596 195.454 166.339 195.52 167.133 195.52C168.695 195.52 169.815 195.22 170.492 194.621C171.169 194.022 171.508 193.28 171.508 192.395C171.508 191.561 171.163 190.858 170.473 190.285C169.796 189.699 168.559 189.204 166.762 188.801C164.21 188.215 162.328 187.434 161.117 186.457C159.919 185.467 159.32 184.152 159.32 182.512C159.32 181.366 159.652 180.344 160.316 179.445C160.98 178.534 161.905 177.811 163.09 177.277C164.275 176.743 165.655 176.477 167.23 176.477C168.832 176.477 170.199 176.659 171.332 177.023C172.478 177.388 173.474 177.876 174.32 178.488L174.516 183.312H171.625L171 180.5C170.544 180.161 170.004 179.901 169.379 179.719C168.754 179.536 168.038 179.445 167.23 179.445C166.033 179.445 165.056 179.725 164.301 180.285C163.559 180.845 163.188 181.548 163.188 182.395C163.188 182.889 163.292 183.319 163.5 183.684C163.721 184.048 164.138 184.38 164.75 184.68C165.362 184.966 166.26 185.253 167.445 185.539C170.388 186.229 172.439 187.108 173.598 188.176C174.77 189.243 175.355 190.559 175.355 192.121C175.355 193.905 174.691 195.402 173.363 196.613C172.048 197.811 169.971 198.41 167.133 198.41ZM187.094 198.41C185.674 198.41 184.346 198.267 183.109 197.98C181.872 197.694 180.557 197.251 179.164 196.652L179.125 191.633H182.035L182.758 194.66C183.487 194.96 184.19 195.181 184.867 195.324C185.557 195.454 186.299 195.52 187.094 195.52C188.656 195.52 189.776 195.22 190.453 194.621C191.13 194.022 191.469 193.28 191.469 192.395C191.469 191.561 191.124 190.858 190.434 190.285C189.757 189.699 188.52 189.204 186.723 188.801C184.171 188.215 182.289 187.434 181.078 186.457C179.88 185.467 179.281 184.152 179.281 182.512C179.281 181.366 179.613 180.344 180.277 179.445C180.941 178.534 181.866 177.811 183.051 177.277C184.236 176.743 185.616 176.477 187.191 176.477C188.793 176.477 190.16 176.659 191.293 177.023C192.439 177.388 193.435 177.876 194.281 178.488L194.477 183.312H191.586L190.961 180.5C190.505 180.161 189.965 179.901 189.34 179.719C188.715 179.536 187.999 179.445 187.191 179.445C185.993 179.445 185.017 179.725 184.262 180.285C183.52 180.845 183.148 181.548 183.148 182.395C183.148 182.889 183.253 183.319 183.461 183.684C183.682 184.048 184.099 184.38 184.711 184.68C185.323 184.966 186.221 185.253 187.406 185.539C190.349 186.229 192.4 187.108 193.559 188.176C194.73 189.243 195.316 190.559 195.316 192.121C195.316 193.905 194.652 195.402 193.324 196.613C192.009 197.811 189.932 198.41 187.094 198.41Z" fill="white"/>
<path d="M52.2969 38.4922C49.1406 38.4922 46.4062 37.7656 44.0938 36.3125C41.7812 34.8438 40 32.8125 38.75 30.2188C37.5 27.625 36.875 24.625 36.875 21.2188V20.6562C36.875 17.2188 37.5 14.2109 38.75 11.6328C40.0156 9.03906 41.7422 7.01562 43.9297 5.5625C46.1172 4.10938 48.6016 3.38281 51.3828 3.38281C54.0391 3.38281 56.2891 3.6875 58.1328 4.29688C59.9922 4.90625 61.5781 5.72656 62.8906 6.75781V13.6484H59.0938L58.6016 8.70312C57.8359 8.20312 56.8984 7.82812 55.7891 7.57812C54.6797 7.3125 53.3672 7.17969 51.8516 7.17969C49.8984 7.17969 48.1406 7.74219 46.5781 8.86719C45.0156 9.99219 43.7812 11.5625 42.875 13.5781C41.9688 15.5781 41.5156 17.9219 41.5156 20.6094V21.2188C41.5156 23.9375 41.9297 26.3125 42.7578 28.3438C43.6016 30.3594 44.8281 31.9297 46.4375 33.0547C48.0469 34.1641 50 34.7188 52.2969 34.7188C53.8594 34.7188 55.1797 34.5859 56.2578 34.3203C57.3359 34.0391 58.2891 33.6797 59.1172 33.2422V25.2266L52.5781 24.9922V21.5938H63.7344V34.8125C62.75 35.7344 61.3359 36.5781 59.4922 37.3438C57.6641 38.1094 55.2656 38.4922 52.2969 38.4922ZM68.2344 38V35.0469L72.0547 34.3906V16.2734L68.2344 15.6172V12.6406H76.1797L76.5781 15.875L76.625 16.3203C77.3438 15.0234 78.2266 14.0078 79.2734 13.2734C80.3359 12.5391 81.5469 12.1719 82.9062 12.1719C83.3906 12.1719 83.8828 12.2188 84.3828 12.3125C84.8984 12.3906 85.2656 12.4688 85.4844 12.5469L84.875 16.8359L81.6641 16.6484C80.4453 16.5703 79.4219 16.8516 78.5938 17.4922C77.7656 18.1172 77.125 18.9609 76.6719 20.0234V34.3906L80.4922 35.0469V38H68.2344ZM96.5 38.4922C93.8594 38.4922 91.8516 37.8516 90.4766 36.5703C89.1016 35.2734 88.4141 33.4531 88.4141 31.1094C88.4141 28.7031 89.3984 26.7734 91.3672 25.3203C93.3359 23.8516 96.0703 23.1172 99.5703 23.1172H104.094V20.6328C104.094 19.1016 103.625 17.9141 102.688 17.0703C101.766 16.2266 100.461 15.8047 98.7734 15.8047C97.7109 15.8047 96.7891 15.9375 96.0078 16.2031C95.2266 16.4531 94.5156 16.8047 93.875 17.2578L93.3828 20.7969H89.8203V14.9844C90.9609 14.0625 92.2891 13.3672 93.8047 12.8984C95.3203 12.4141 97 12.1719 98.8438 12.1719C101.922 12.1719 104.336 12.9062 106.086 14.375C107.836 15.8438 108.711 17.9453 108.711 20.6797V32.8906C108.711 33.2188 108.711 33.5391 108.711 33.8516C108.727 34.1641 108.75 34.4766 108.781 34.7891L111.242 35.0469V38H104.609C104.469 37.3125 104.359 36.6953 104.281 36.1484C104.203 35.6016 104.148 35.0547 104.117 34.5078C103.227 35.6484 102.109 36.6016 100.766 37.3672C99.4375 38.1172 98.0156 38.4922 96.5 38.4922ZM97.1797 34.625C98.7109 34.625 100.109 34.2578 101.375 33.5234C102.641 32.7891 103.547 31.9062 104.094 30.875V26.2812H99.4062C97.2812 26.2812 95.6875 26.7891 94.625 27.8047C93.5625 28.8203 93.0312 29.9531 93.0312 31.2031C93.0312 32.3125 93.375 33.1641 94.0625 33.7578C94.75 34.3359 95.7891 34.625 97.1797 34.625ZM124.789 38.4922C122.727 38.4922 120.953 37.9844 119.469 36.9688C118 35.9375 116.875 34.5078 116.094 32.6797C115.312 30.8516 114.922 28.7188 114.922 26.2812V25.7891C114.922 23.0703 115.312 20.6875 116.094 18.6406C116.875 16.5938 118.008 15.0078 119.492 13.8828C120.977 12.7422 122.758 12.1719 124.836 12.1719C126.336 12.1719 127.656 12.4531 128.797 13.0156C129.953 13.5625 130.938 14.3594 131.75 15.4062V5.07031L127.93 4.41406V1.4375H131.75H136.367V34.3906L140.188 35.0469V38H132.359L131.984 34.9766C131.156 36.1328 130.141 37.0078 128.938 37.6016C127.75 38.1953 126.367 38.4922 124.789 38.4922ZM125.961 34.7422C127.336 34.7422 128.492 34.4297 129.43 33.8047C130.367 33.1797 131.141 32.2969 131.75 31.1562V19.3906C131.156 18.3281 130.383 17.4844 129.43 16.8594C128.477 16.2344 127.336 15.9219 126.008 15.9219C124.539 15.9219 123.328 16.3438 122.375 17.1875C121.422 18.0156 120.711 19.1719 120.242 20.6562C119.773 22.125 119.539 23.8359 119.539 25.7891V26.2812C119.539 28.8281 120.062 30.875 121.109 32.4219C122.156 33.9688 123.773 34.7422 125.961 34.7422ZM154.789 38.4922C152.445 38.4922 150.406 37.9609 148.672 36.8984C146.938 35.8203 145.594 34.3281 144.641 32.4219C143.703 30.5156 143.234 28.3125 143.234 25.8125V24.7812C143.234 22.375 143.727 20.2266 144.711 18.3359C145.711 16.4297 147.031 14.9297 148.672 13.8359C150.328 12.7266 152.133 12.1719 154.086 12.1719C156.367 12.1719 158.273 12.6406 159.805 13.5781C161.352 14.5156 162.516 15.8359 163.297 17.5391C164.078 19.2266 164.469 21.2188 164.469 23.5156V26.3984H148.016L147.945 26.5156C147.977 28.1406 148.258 29.5859 148.789 30.8516C149.336 32.1016 150.117 33.0859 151.133 33.8047C152.148 34.5234 153.367 34.8828 154.789 34.8828C156.352 34.8828 157.719 34.6641 158.891 34.2266C160.078 33.7734 161.102 33.1562 161.961 32.375L163.766 35.375C162.859 36.25 161.656 36.9922 160.156 37.6016C158.672 38.1953 156.883 38.4922 154.789 38.4922ZM148.156 22.7891H159.852V22.1797C159.852 20.9609 159.633 19.875 159.195 18.9219C158.773 17.9531 158.133 17.1953 157.273 16.6484C156.43 16.0859 155.367 15.8047 154.086 15.8047C153.055 15.8047 152.117 16.1094 151.273 16.7188C150.43 17.3125 149.734 18.125 149.188 19.1562C148.641 20.1875 148.281 21.3594 148.109 22.6719L148.156 22.7891Z" fill="white"/>
<path d="M179.793 149.752C179.793 149.881 179.758 150.01 179.688 150.139C179.617 150.256 179.529 150.367 179.424 150.473C179.318 150.566 179.201 150.648 179.072 150.719C178.943 150.777 178.82 150.807 178.703 150.807C178.621 150.807 178.539 150.801 178.457 150.789C178.375 150.777 178.293 150.771 178.211 150.771C178.105 150.771 178.035 150.807 178 150.877C177.965 150.936 177.93 151 177.895 151.07C177.871 151.141 177.83 151.205 177.771 151.264C177.713 151.334 177.607 151.369 177.455 151.369C177.361 151.369 177.262 151.357 177.156 151.334C177.051 151.311 176.945 151.299 176.84 151.299C176.617 151.299 176.4 151.34 176.189 151.422C175.99 151.516 175.773 151.562 175.539 151.562C175.34 151.562 175.041 151.527 174.643 151.457C174.244 151.398 173.84 151.299 173.43 151.158C173.031 151.029 172.68 150.871 172.375 150.684C172.07 150.484 171.918 150.256 171.918 149.998C171.918 149.799 172.029 149.6 172.252 149.4C172.486 149.189 172.744 148.961 173.025 148.715C173.307 148.457 173.559 148.17 173.781 147.854C174.016 147.537 174.133 147.168 174.133 146.746C174.133 146.5 174.08 146.26 173.975 146.025C173.881 145.791 173.758 145.574 173.605 145.375C173.453 145.164 173.277 144.971 173.078 144.795C172.891 144.619 172.709 144.455 172.533 144.303C172.475 144.279 172.387 144.268 172.27 144.268C171.953 144.268 171.637 144.303 171.32 144.373C171.004 144.432 170.688 144.461 170.371 144.461C170.207 144.461 170.037 144.438 169.861 144.391C169.697 144.344 169.586 144.227 169.527 144.039C169.223 144.191 168.918 144.338 168.613 144.479C168.309 144.607 167.998 144.725 167.682 144.83C167.482 144.9 167.336 144.953 167.242 144.988C167.16 145.023 167.096 145.064 167.049 145.111C167.014 145.158 166.984 145.229 166.961 145.322C166.949 145.416 166.908 145.551 166.838 145.727C166.791 145.844 166.768 145.949 166.768 146.043C166.768 146.137 166.768 146.242 166.768 146.359C166.768 146.512 166.738 146.635 166.68 146.729C166.621 146.811 166.557 146.893 166.486 146.975C166.428 147.045 166.369 147.121 166.311 147.203C166.252 147.285 166.223 147.391 166.223 147.52C166.223 147.625 166.24 147.719 166.275 147.801L166.258 147.889C166.258 148.064 166.305 148.205 166.398 148.311C166.492 148.404 166.604 148.48 166.732 148.539C166.873 148.586 167.02 148.633 167.172 148.68C167.324 148.727 167.459 148.785 167.576 148.855C167.693 148.926 167.805 149.043 167.91 149.207C168.027 149.359 168.127 149.529 168.209 149.717C168.303 149.893 168.379 150.074 168.438 150.262C168.496 150.438 168.525 150.59 168.525 150.719V150.807H168.297C167.828 150.807 167.359 150.83 166.891 150.877C166.434 150.912 165.977 150.953 165.52 151C165.062 151.059 164.6 151.105 164.131 151.141C163.674 151.188 163.211 151.211 162.742 151.211C162.578 151.211 162.338 151.205 162.021 151.193C161.717 151.182 161.412 151.146 161.107 151.088C160.803 151.041 160.533 150.959 160.299 150.842C160.076 150.713 159.965 150.531 159.965 150.297C159.965 150.051 160.018 149.846 160.123 149.682C160.24 149.518 160.387 149.383 160.562 149.277C160.75 149.16 160.955 149.066 161.178 148.996C161.412 148.914 161.641 148.838 161.863 148.768C162.098 148.697 162.314 148.627 162.514 148.557C162.725 148.486 162.9 148.393 163.041 148.275C163.182 148.158 163.299 147.971 163.393 147.713C163.486 147.443 163.562 147.156 163.621 146.852C163.68 146.547 163.732 146.248 163.779 145.955C163.826 145.65 163.867 145.41 163.902 145.234C163.914 145.176 163.92 145.105 163.92 145.023C163.932 144.93 163.938 144.836 163.938 144.742C163.949 144.648 163.955 144.561 163.955 144.479C163.967 144.396 163.984 144.338 164.008 144.303C164.125 144.104 164.213 143.986 164.271 143.951C164.342 143.916 164.389 143.887 164.412 143.863C164.447 143.84 164.465 143.781 164.465 143.688C164.477 143.582 164.482 143.371 164.482 143.055C164.482 142.914 164.512 142.809 164.57 142.738C164.629 142.656 164.688 142.586 164.746 142.527C164.816 142.469 164.881 142.416 164.939 142.369C164.998 142.311 165.027 142.234 165.027 142.141C165.027 141.977 164.98 141.83 164.887 141.701C164.793 141.561 164.746 141.408 164.746 141.244C164.746 141.15 164.77 141.068 164.816 140.998C164.863 140.928 164.916 140.863 164.975 140.805C165.045 140.746 165.104 140.688 165.15 140.629C165.197 140.559 165.221 140.477 165.221 140.383C165.221 140.254 165.191 140.125 165.133 139.996C165.086 139.867 165.062 139.738 165.062 139.609C165.062 139.516 165.092 139.451 165.15 139.416C165.221 139.369 165.291 139.334 165.361 139.311C165.443 139.287 165.514 139.27 165.572 139.258C165.643 139.234 165.678 139.205 165.678 139.17C165.643 139.1 165.578 139.064 165.484 139.064C165.344 139.064 165.273 139.141 165.273 139.293C165.191 139.234 165.121 139.17 165.062 139.1C165.004 139.018 164.975 138.93 164.975 138.836C164.975 138.719 165.004 138.613 165.062 138.52C165.121 138.414 165.186 138.297 165.256 138.168C165.338 138.039 165.408 137.893 165.467 137.729C165.525 137.564 165.555 137.365 165.555 137.131C165.555 136.885 165.52 136.65 165.449 136.428C165.379 136.193 165.344 135.959 165.344 135.725C165.344 135.607 165.367 135.49 165.414 135.373C165.473 135.256 165.537 135.145 165.607 135.039C165.689 134.922 165.766 134.811 165.836 134.705C165.918 134.588 165.977 134.465 166.012 134.336C166.082 134.113 166.117 133.879 166.117 133.633C166.129 133.387 166.135 133.141 166.135 132.895C166.146 132.648 166.164 132.408 166.188 132.174C166.223 131.928 166.299 131.699 166.416 131.488C166.521 131.301 166.604 131.148 166.662 131.031C166.721 130.914 166.773 130.803 166.82 130.697C166.867 130.58 166.908 130.457 166.943 130.328C166.979 130.188 167.014 130.006 167.049 129.783C167.107 129.443 167.195 129.115 167.312 128.799C167.441 128.482 167.529 128.154 167.576 127.814C167.6 127.557 167.611 127.34 167.611 127.164C167.623 126.977 167.652 126.812 167.699 126.672C167.758 126.531 167.852 126.408 167.98 126.303C168.121 126.197 168.332 126.092 168.613 125.986C168.918 125.881 169.223 125.811 169.527 125.775C169.832 125.729 170.137 125.705 170.441 125.705C170.793 125.705 171.156 125.723 171.531 125.758C171.566 125.957 171.643 126.139 171.76 126.303C171.877 126.455 172 126.607 172.129 126.76C172.27 126.912 172.398 127.07 172.516 127.234C172.645 127.387 172.732 127.562 172.779 127.762C172.838 128.031 172.873 128.289 172.885 128.535C172.908 128.77 173.008 129.004 173.184 129.238C173.266 129.367 173.307 129.52 173.307 129.695C173.307 129.965 173.271 130.223 173.201 130.469C173.131 130.715 173.096 130.967 173.096 131.225C173.096 131.377 173.143 131.629 173.236 131.98C173.33 132.332 173.441 132.713 173.57 133.123C173.699 133.521 173.822 133.914 173.939 134.301C174.057 134.676 174.145 134.969 174.203 135.18C174.309 135.625 174.361 136.082 174.361 136.551C174.373 137.02 174.449 137.477 174.59 137.922C174.73 138.391 174.854 138.859 174.959 139.328C175.064 139.785 175.135 140.26 175.17 140.752C175.193 141.209 175.252 141.654 175.346 142.088C175.439 142.51 175.539 142.938 175.645 143.371C175.75 143.793 175.844 144.221 175.926 144.654C176.02 145.088 176.066 145.539 176.066 146.008C176.066 146.184 176.049 146.365 176.014 146.553C175.99 146.74 175.914 146.904 175.785 147.045C176.031 147.338 176.307 147.654 176.611 147.994C176.928 148.334 177.238 148.604 177.543 148.803C177.66 148.873 177.842 148.926 178.088 148.961C178.334 148.996 178.58 149.043 178.826 149.102C179.084 149.148 179.307 149.225 179.494 149.33C179.693 149.424 179.793 149.564 179.793 149.752ZM172.428 140.277C172.428 140.172 172.387 140.037 172.305 139.873C172.223 139.697 172.129 139.504 172.023 139.293C171.93 139.082 171.842 138.854 171.76 138.607C171.678 138.361 171.637 138.104 171.637 137.834C171.637 137.518 171.59 137.207 171.496 136.902C171.402 136.586 171.338 136.27 171.303 135.953C171.279 135.695 171.25 135.414 171.215 135.109C171.191 134.793 171.133 134.5 171.039 134.23C170.945 133.949 170.799 133.721 170.6 133.545C170.412 133.357 170.137 133.264 169.773 133.264C169.75 133.357 169.709 133.428 169.65 133.475C169.592 133.51 169.521 133.545 169.439 133.58C169.369 133.604 169.293 133.627 169.211 133.65C169.129 133.674 169.064 133.715 169.018 133.773C169.029 133.809 169.035 133.861 169.035 133.932C169.035 134.143 168.988 134.342 168.895 134.529C168.812 134.705 168.736 134.887 168.666 135.074C168.584 135.273 168.525 135.484 168.49 135.707C168.467 135.918 168.455 136.129 168.455 136.34C168.455 136.527 168.461 136.709 168.473 136.885C168.484 137.061 168.49 137.236 168.49 137.412C168.49 137.682 168.467 137.916 168.42 138.115C168.373 138.303 168.32 138.479 168.262 138.643C168.203 138.807 168.15 138.965 168.104 139.117C168.057 139.258 168.033 139.41 168.033 139.574C168.033 139.926 168.045 140.23 168.068 140.488C168.092 140.746 168.145 140.963 168.227 141.139C168.309 141.303 168.426 141.432 168.578 141.525C168.73 141.607 168.941 141.648 169.211 141.648C169.398 141.648 169.668 141.625 170.02 141.578C170.383 141.531 170.74 141.455 171.092 141.35C171.455 141.232 171.766 141.086 172.023 140.91C172.293 140.734 172.428 140.523 172.428 140.277ZM196.527 138.15C196.527 138.561 196.398 138.859 196.141 139.047C195.883 139.234 195.566 139.328 195.191 139.328C195.016 139.328 194.84 139.287 194.664 139.205C194.5 139.123 194.318 139.082 194.119 139.082C193.908 139.082 193.697 139.1 193.486 139.135C193.287 139.17 193.094 139.211 192.906 139.258C192.719 139.293 192.549 139.328 192.396 139.363C192.244 139.398 192.121 139.416 192.027 139.416C191.875 139.416 191.734 139.404 191.605 139.381C191.477 139.346 191.342 139.328 191.201 139.328C191.037 139.328 190.896 139.393 190.779 139.521C190.674 139.65 190.586 139.809 190.516 139.996C190.445 140.172 190.393 140.359 190.357 140.559C190.322 140.746 190.305 140.904 190.305 141.033C190.305 141.186 190.322 141.32 190.357 141.438C190.404 141.555 190.445 141.672 190.48 141.789C190.527 141.906 190.568 142.041 190.604 142.193C190.65 142.346 190.674 142.533 190.674 142.756C190.674 142.896 190.668 143.037 190.656 143.178C190.656 143.318 190.656 143.453 190.656 143.582C190.656 143.805 190.68 144.027 190.727 144.25C190.773 144.461 190.797 144.684 190.797 144.918C190.797 145.129 190.744 145.322 190.639 145.498C190.533 145.662 190.393 145.803 190.217 145.92C190.053 146.025 189.871 146.107 189.672 146.166C189.473 146.225 189.285 146.254 189.109 146.254C188.969 146.254 188.816 146.23 188.652 146.184C188.488 146.137 188.33 146.072 188.178 145.99C188.025 145.908 187.896 145.809 187.791 145.691C187.697 145.574 187.65 145.445 187.65 145.305C187.65 145.223 187.656 145.146 187.668 145.076C187.691 145.006 187.703 144.93 187.703 144.848C187.703 144.719 187.68 144.596 187.633 144.479C187.586 144.35 187.562 144.221 187.562 144.092C187.562 143.857 187.592 143.629 187.65 143.406C187.709 143.184 187.75 142.955 187.773 142.721C187.82 142.346 187.844 141.971 187.844 141.596C187.844 141.209 187.844 140.828 187.844 140.453C187.844 140.336 187.82 140.189 187.773 140.014C187.738 139.838 187.68 139.674 187.598 139.521C187.516 139.357 187.41 139.223 187.281 139.117C187.164 139 187.029 138.941 186.877 138.941C186.736 138.941 186.596 138.971 186.455 139.029C186.314 139.076 186.174 139.135 186.033 139.205C185.893 139.264 185.752 139.322 185.611 139.381C185.471 139.428 185.33 139.451 185.189 139.451C185.119 139.451 185.043 139.428 184.961 139.381C184.891 139.322 184.809 139.293 184.715 139.293C184.48 139.293 184.246 139.34 184.012 139.434C183.777 139.516 183.531 139.557 183.273 139.557C183.098 139.557 182.869 139.533 182.588 139.486C182.318 139.428 182.055 139.346 181.797 139.24C181.539 139.135 181.316 139 181.129 138.836C180.953 138.66 180.865 138.455 180.865 138.221C180.865 138.01 180.936 137.816 181.076 137.641C181.217 137.453 181.387 137.295 181.586 137.166C181.797 137.025 182.02 136.92 182.254 136.85C182.488 136.779 182.699 136.744 182.887 136.744C183.25 136.744 183.607 136.803 183.959 136.92C184.322 137.037 184.686 137.096 185.049 137.096C185.33 137.096 185.605 137.055 185.875 136.973C186.156 136.891 186.432 136.85 186.701 136.85C186.83 136.85 186.947 136.873 187.053 136.92C187.158 136.967 187.27 136.99 187.387 136.99C187.469 136.99 187.562 136.949 187.668 136.867C187.773 136.785 187.867 136.691 187.949 136.586C188.031 136.469 188.102 136.352 188.16 136.234C188.219 136.105 188.248 136 188.248 135.918C188.248 135.812 188.213 135.707 188.143 135.602C188.072 135.484 188.037 135.361 188.037 135.232C188.037 135.127 188.061 135.027 188.107 134.934C188.154 134.828 188.178 134.723 188.178 134.617C188.178 134.523 188.154 134.447 188.107 134.389C188.061 134.318 188.002 134.254 187.932 134.195C187.873 134.125 187.82 134.061 187.773 134.002C187.727 133.943 187.703 133.873 187.703 133.791C187.703 133.686 187.744 133.592 187.826 133.51C187.908 133.428 187.949 133.328 187.949 133.211C187.949 133.07 187.908 132.936 187.826 132.807C187.744 132.678 187.703 132.514 187.703 132.314C187.703 132.174 187.721 132.021 187.756 131.857C187.803 131.682 187.867 131.523 187.949 131.383C188.031 131.23 188.137 131.107 188.266 131.014C188.395 130.92 188.541 130.873 188.705 130.873C189.021 130.873 189.279 130.926 189.479 131.031C189.678 131.137 189.836 131.277 189.953 131.453C190.07 131.629 190.146 131.84 190.182 132.086C190.229 132.32 190.252 132.566 190.252 132.824C190.252 132.93 190.229 133.035 190.182 133.141C190.135 133.246 190.111 133.357 190.111 133.475C190.111 133.58 190.141 133.674 190.199 133.756C190.27 133.838 190.305 133.943 190.305 134.072C190.305 134.26 190.258 134.436 190.164 134.6C190.082 134.764 190.041 134.939 190.041 135.127C190.041 135.49 190.1 135.836 190.217 136.164C190.346 136.48 190.48 136.791 190.621 137.096L190.727 137.148C190.855 137.148 190.99 137.125 191.131 137.078C191.271 137.02 191.412 136.99 191.553 136.99C191.787 136.99 192.021 137.02 192.256 137.078C192.49 137.125 192.736 137.148 192.994 137.148C193.252 137.148 193.498 137.113 193.732 137.043C193.967 136.961 194.213 136.92 194.471 136.92C194.553 136.92 194.688 136.938 194.875 136.973C195.062 136.996 195.262 137.031 195.473 137.078C195.684 137.125 195.877 137.184 196.053 137.254C196.229 137.312 196.34 137.371 196.387 137.43C196.457 137.523 196.498 137.646 196.51 137.799C196.521 137.939 196.527 138.057 196.527 138.15Z" fill="white"/>
</g>
<defs>
<clipPath id="clip0_1_2">
<rect width="200" height="200" fill="white"/>
</clipPath>
</defs>
</svg>
