<svg width="200" height="200" viewBox="0 0 200 200" fill="none" xmlns="http://www.w3.org/2000/svg">
<g clip-path="url(#clip0_1_2)">
<path d="M183.333 200V194.444C183.333 185.604 179.821 177.125 173.57 170.874C167.319 164.623 158.841 161.111 150 161.111H50C41.1595 161.111 32.681 164.623 26.4298 170.874C20.1786 177.125 16.6667 185.604 16.6667 194.444V200H183.333ZM148.611 113.528C155.211 114.683 163.161 114.244 162.033 118.622C159.372 128.922 147.567 125.106 145.483 125.222C143.4 125.333 148.611 113.528 148.611 113.528Z" fill="#66757F"/>
<path d="M150.344 114.694C160.761 116.083 164.461 117.006 156.822 120.017C152.533 121.711 144.361 146.7 138.317 142.894C132.278 139.089 150.344 114.694 150.344 114.694Z" fill="#292F33"/>
<path d="M51.4167 113.528C44.8167 114.683 36.8667 114.244 37.9944 118.622C40.6556 128.922 52.4611 125.106 54.5444 125.222C56.6278 125.333 51.4167 113.528 51.4167 113.528Z" fill="#66757F"/>
<path d="M49.6833 114.694C39.2667 116.083 35.5667 117.006 43.2056 120.017C47.4944 121.711 55.6667 146.7 61.7111 142.894C67.7556 139.089 49.6833 114.694 49.6833 114.694Z" fill="#292F33"/>
<path d="M120.95 22.3167C110.072 18.7944 84.4722 19.7556 78.0722 28.0778C61.4333 28.4 41.9167 43.4333 39.3556 63.2722C36.8222 82.9056 42.4667 92.0222 44.4778 106.789C46.75 123.517 56.1556 128.867 63.6778 131.106C74.4944 145.394 85.9944 144.783 105.3 144.783C143.006 144.783 160.961 119.556 162.55 76.7111C163.506 50.7944 148.3 31.1667 120.95 22.3167Z" fill="white"/>
<path d="M142.511 78.5389C138.861 73.4889 134.194 69.4222 123.956 67.9778C127.794 69.7389 131.472 75.8167 131.956 79.1778C132.433 82.5389 132.917 85.2556 129.878 81.9C117.7 68.4389 104.439 73.7389 91.3 65.5167C82.1222 59.7722 79.3278 53.4222 79.3278 53.4222C79.3278 53.4222 78.2056 61.9 64.2889 70.5389C60.2556 73.0444 55.4389 78.6222 52.7722 86.8556C50.85 92.7778 51.45 98.0556 51.45 107.078C51.45 133.411 73.15 155.556 99.9278 155.556C126.706 155.556 148.406 133.222 148.406 107.078C148.383 90.7 146.672 84.3 142.511 78.5389Z" fill="white"/>
<path d="M105.189 119.806H94.5111C93.8024 119.806 93.1227 119.524 92.6216 119.023C92.1204 118.522 91.8389 117.842 91.8389 117.133V116.167C91.8389 114.694 93.0333 113.489 94.5111 113.489H105.189C106.661 113.489 107.867 114.689 107.867 116.167V117.133C107.867 117.485 107.797 117.833 107.663 118.157C107.528 118.482 107.331 118.777 107.082 119.025C106.833 119.273 106.538 119.47 106.213 119.604C105.888 119.738 105.54 119.806 105.189 119.806Z" fill="#292F33"/>
<path fill-rule="evenodd" clip-rule="evenodd" d="M42.5389 82.1556C43.3611 82.9722 47.4722 85.4389 48.2944 87.9C49.1167 90.3611 50.7667 104.311 55.7 108.417C60.7889 112.65 79.9778 111.072 83.6556 109.244C91.8778 105.144 92.8889 93.7 94.3445 87.9C95.1667 84.6167 100.1 84.6167 100.1 84.6167C100.1 84.6167 105.033 84.6167 105.856 87.9C107.311 93.7 108.322 105.144 116.544 109.239C120.222 111.072 139.411 112.65 144.511 108.422C149.439 104.317 151.083 90.3667 151.906 87.9C152.717 85.4389 156.839 82.9778 157.656 82.1556C158.478 81.3333 158.478 78.05 157.656 77.2278C156.011 75.5889 136.611 74.1222 115.722 76.4056C111.556 76.8611 109.972 78.0445 100.1 78.0445C90.2333 78.0445 88.6444 76.8556 84.4778 76.4056C63.5944 74.1222 44.1889 75.5833 42.5444 77.2278C41.7167 78.05 41.7167 81.3389 42.5389 82.1556Z" fill="#292F33"/>
<path d="M43.6556 46.6389C43.6556 46.6389 51.2056 -2.81111 76.6111 0.127782C96.1222 2.38334 103.778 4.71111 120.128 0.66667C130.944 -2.01111 142.711 6.97778 149.806 24.9944C152.64 32.294 154.913 39.7991 156.606 47.4444C156.606 47.4444 178.483 45.3056 179.744 57.0667C181.011 68.8278 155.556 83.2667 91.4722 83.2667C55.5556 83.2611 18.5 70.1667 16.7389 59.2056C14.9778 48.2444 43.6556 46.6389 43.6556 46.6389Z" fill="#66757F"/>
<path d="M45.1389 39.7222C45.1389 39.7222 43.6389 45.8556 42.8833 50.1167C42.1278 54.3833 44.1389 57.3167 57.9111 60.25C76.1722 64.1389 117.239 64.0944 141.567 58.1222C151.339 55.7222 157.6 54.1222 156.85 49.3278C155.922 43.3944 155.761 43.4056 153.844 37.0611C153.844 37.0611 145.639 39.85 134.806 42.3944C120.028 45.8611 79.45 47.4556 59.9111 43.1944C49.5 40.9167 45.1389 39.7222 45.1389 39.7222ZM44.3833 117.239C42.4167 118.044 60.6111 124.894 85.9389 125.339C112.444 125.806 120.572 127.506 114.528 133.444C108.161 139.694 109.794 149.522 110.244 152.433C110.694 155.344 121.617 163.078 122.511 166.656C123.406 170.239 115.683 199.772 115.683 199.772L67.1889 198.372C52.9389 149.239 51.1722 151.144 44.3833 122.794C43.0444 117.194 44.3833 117.239 44.3833 117.239Z" fill="#292F33"/>
<path d="M38.8278 117.467C36.8611 118.278 55.0556 125.122 80.3833 125.567C106.889 126.033 115.017 127.733 108.972 133.672C102.606 139.922 105.283 149.75 105.733 152.661C106.183 155.572 116.061 163.306 116.961 166.889C117.85 170.467 110.122 200 110.122 200L61.6278 198.6C47.3778 149.467 45.6111 151.372 38.8222 123.022C37.4889 117.422 38.8278 117.467 38.8278 117.467Z" fill="#66757F"/>
<path d="M155.844 117.239C157.811 118.044 139.617 124.894 114.294 125.339C87.7889 125.806 79.6611 127.506 85.7056 133.444C92.0722 139.694 102.239 149.511 101.794 152.422C101.344 155.333 78.6167 163.078 77.7222 166.656C76.8278 170.239 84.55 199.772 84.55 199.772L133.044 198.372C147.294 149.239 149.061 151.144 155.844 122.794C157.183 117.194 155.844 117.239 155.844 117.239Z" fill="#292F33"/>
<path d="M160.878 117.239C162.844 118.044 144.65 124.894 119.328 125.339C92.8222 125.806 84.6944 127.506 90.7389 133.444C97.1056 139.694 107.278 149.511 106.828 152.422C106.378 155.333 83.65 163.078 82.7556 166.656C81.8611 170.239 89.5833 199.772 89.5833 199.772L137.678 199.828C151.928 150.694 154.094 151.144 160.883 122.794C162.217 117.194 160.878 117.239 160.878 117.239Z" fill="#66757F"/>
<path d="M2.09375 198V194.582L5.12109 193.996V173.586L2.09375 173V169.562H24.7305V177.355H20.3555L20.1016 173.957H10.8242V181.789H20.7852V186.184H10.8242V193.996L13.8711 194.582V198H2.09375ZM26.7812 198V194.582L29.5352 193.996V180.891L26.4883 180.305V176.867H35.2383V193.996L37.9727 194.582V198H26.7812ZM29.3398 172.395V167.531H35.2383V172.395H29.3398ZM39.6719 198V194.582L42.4062 193.996V180.891L39.3789 180.305V176.867H47.7188L47.9727 179.895C48.6758 178.814 49.5417 177.974 50.5703 177.375C51.612 176.776 52.7969 176.477 54.125 176.477C56.2214 176.477 57.862 177.147 59.0469 178.488C60.2318 179.829 60.8242 181.932 60.8242 184.797V193.996L63.5586 194.582V198H52.6602V194.582L55.1016 193.996V184.816C55.1016 183.397 54.8216 182.395 54.2617 181.809C53.7018 181.21 52.8685 180.91 51.7617 180.91C50.9414 180.91 50.2253 181.086 49.6133 181.438C49.0143 181.776 48.513 182.264 48.1094 182.902V193.996L50.4141 194.582V198H39.6719ZM72.5039 198.41C70.4076 198.41 68.7409 197.85 67.5039 196.73C66.2669 195.598 65.6484 194.061 65.6484 192.121C65.6484 190.129 66.4557 188.514 68.0703 187.277C69.6849 186.027 72.0482 185.402 75.1602 185.402H77.9531V183.84C77.9531 182.824 77.6536 182.004 77.0547 181.379C76.4688 180.741 75.5833 180.422 74.3984 180.422C73.7865 180.422 73.2396 180.5 72.7578 180.656C72.276 180.799 71.8333 181.008 71.4297 181.281L70.9805 184.074H66.8789L66.8008 178.586C67.9076 177.961 69.1055 177.453 70.3945 177.062C71.6836 176.672 73.1224 176.477 74.7109 176.477C77.4714 176.477 79.6523 177.121 81.2539 178.41C82.8555 179.686 83.6562 181.516 83.6562 183.898V192.609C83.6562 192.896 83.6562 193.182 83.6562 193.469C83.6693 193.742 83.6953 194.009 83.7344 194.27L85.9414 194.582V198H78.8711C78.7279 197.635 78.5846 197.245 78.4414 196.828C78.2982 196.411 78.194 195.995 78.1289 195.578C77.4518 196.438 76.651 197.128 75.7266 197.648C74.8151 198.156 73.7409 198.41 72.5039 198.41ZM74.0273 194.191C74.8216 194.191 75.5768 194.016 76.293 193.664C77.0091 193.299 77.5625 192.824 77.9531 192.238V188.898H75.1406C73.8906 188.898 72.9401 189.185 72.2891 189.758C71.651 190.331 71.332 191.021 71.332 191.828C71.332 192.583 71.5664 193.169 72.0352 193.586C72.5169 193.99 73.181 194.191 74.0273 194.191ZM87.6602 198V194.582L90.4141 193.996V171.555L87.3672 170.969V167.531H96.1172V193.996L98.8711 194.582V198H87.6602ZM110.414 198V194.582L113.441 193.996V173.586L110.414 173V169.562H113.441H123.051C126.397 169.562 129.008 170.214 130.883 171.516C132.758 172.818 133.695 174.764 133.695 177.355C133.695 178.671 133.344 179.849 132.641 180.891C131.951 181.919 130.941 182.694 129.613 183.215C130.746 183.462 131.69 183.898 132.445 184.523C133.214 185.148 133.786 185.91 134.164 186.809C134.542 187.694 134.73 188.664 134.73 189.719C134.73 192.44 133.832 194.504 132.035 195.91C130.238 197.303 127.693 198 124.398 198H110.414ZM119.145 193.625H124.398C125.909 193.625 127.061 193.299 127.855 192.648C128.65 191.984 129.047 191.008 129.047 189.719C129.047 188.326 128.708 187.264 128.031 186.535C127.354 185.793 126.286 185.422 124.828 185.422H119.145V193.625ZM119.145 181.477H123.246C124.77 181.477 125.941 181.164 126.762 180.539C127.582 179.914 127.992 179.003 127.992 177.805C127.992 176.49 127.576 175.52 126.742 174.895C125.922 174.27 124.691 173.957 123.051 173.957H119.145V181.477ZM146.879 198.41C144.796 198.41 143.005 197.954 141.508 197.043C140.01 196.132 138.865 194.868 138.07 193.254C137.276 191.626 136.879 189.758 136.879 187.648V187.238C136.879 185.142 137.276 183.286 138.07 181.672C138.865 180.044 140.004 178.775 141.488 177.863C142.986 176.939 144.77 176.477 146.84 176.477C148.936 176.477 150.727 176.939 152.211 177.863C153.695 178.775 154.835 180.038 155.629 181.652C156.423 183.267 156.82 185.129 156.82 187.238V187.648C156.82 189.758 156.423 191.626 155.629 193.254C154.835 194.868 153.695 196.132 152.211 197.043C150.727 197.954 148.949 198.41 146.879 198.41ZM146.879 194.035C147.868 194.035 148.676 193.768 149.301 193.234C149.926 192.701 150.388 191.958 150.688 191.008C150.987 190.044 151.137 188.924 151.137 187.648V187.238C151.137 185.988 150.987 184.888 150.688 183.938C150.388 182.974 149.919 182.225 149.281 181.691C148.656 181.145 147.842 180.871 146.84 180.871C145.863 180.871 145.056 181.145 144.418 181.691C143.78 182.225 143.311 182.974 143.012 183.938C142.725 184.888 142.582 185.988 142.582 187.238V187.648C142.582 188.924 142.725 190.044 143.012 191.008C143.311 191.971 143.78 192.72 144.418 193.254C145.056 193.775 145.876 194.035 146.879 194.035ZM168.441 198.41C166.866 198.41 165.395 198.26 164.027 197.961C162.673 197.661 161.371 197.232 160.121 196.672L160.062 190.695H164.027L164.789 193.742C165.232 193.964 165.714 194.139 166.234 194.27C166.768 194.4 167.374 194.465 168.051 194.465C169.327 194.465 170.225 194.257 170.746 193.84C171.267 193.423 171.527 192.902 171.527 192.277C171.527 191.691 171.247 191.177 170.688 190.734C170.141 190.279 169.04 189.882 167.387 189.543C164.887 189.022 163.044 188.215 161.859 187.121C160.674 186.027 160.082 184.628 160.082 182.922C160.082 181.75 160.375 180.682 160.961 179.719C161.56 178.755 162.465 177.98 163.676 177.395C164.9 176.809 166.462 176.516 168.363 176.516C169.952 176.516 171.404 176.672 172.719 176.984C174.047 177.284 175.16 177.681 176.059 178.176L176.117 183.957H172.172L171.566 181.184C171.215 180.923 170.798 180.728 170.316 180.598C169.848 180.467 169.314 180.402 168.715 180.402C167.712 180.402 166.944 180.604 166.41 181.008C165.876 181.411 165.609 181.932 165.609 182.57C165.609 182.935 165.701 183.273 165.883 183.586C166.078 183.898 166.456 184.191 167.016 184.465C167.576 184.738 168.389 184.999 169.457 185.246C172.074 185.845 173.982 186.646 175.18 187.648C176.378 188.638 176.977 190.031 176.977 191.828C176.977 193.794 176.26 195.383 174.828 196.594C173.409 197.805 171.28 198.41 168.441 198.41ZM188.637 198.41C187.061 198.41 185.59 198.26 184.223 197.961C182.868 197.661 181.566 197.232 180.316 196.672L180.258 190.695H184.223L184.984 193.742C185.427 193.964 185.909 194.139 186.43 194.27C186.964 194.4 187.569 194.465 188.246 194.465C189.522 194.465 190.421 194.257 190.941 193.84C191.462 193.423 191.723 192.902 191.723 192.277C191.723 191.691 191.443 191.177 190.883 190.734C190.336 190.279 189.236 189.882 187.582 189.543C185.082 189.022 183.24 188.215 182.055 187.121C180.87 186.027 180.277 184.628 180.277 182.922C180.277 181.75 180.57 180.682 181.156 179.719C181.755 178.755 182.66 177.98 183.871 177.395C185.095 176.809 186.658 176.516 188.559 176.516C190.147 176.516 191.599 176.672 192.914 176.984C194.242 177.284 195.355 177.681 196.254 178.176L196.312 183.957H192.367L191.762 181.184C191.41 180.923 190.993 180.728 190.512 180.598C190.043 180.467 189.509 180.402 188.91 180.402C187.908 180.402 187.139 180.604 186.605 181.008C186.072 181.411 185.805 181.932 185.805 182.57C185.805 182.935 185.896 183.273 186.078 183.586C186.273 183.898 186.651 184.191 187.211 184.465C187.771 184.738 188.585 184.999 189.652 185.246C192.27 185.845 194.177 186.646 195.375 187.648C196.573 188.638 197.172 190.031 197.172 191.828C197.172 193.794 196.456 195.383 195.023 196.594C193.604 197.805 191.475 198.41 188.637 198.41Z" fill="black"/>
<path d="M52.1797 38.4922C48.7891 38.4922 45.8984 37.7891 43.5078 36.3828C41.1172 34.9766 39.2812 33.0234 38 30.5234C36.7344 28.0234 36.1016 25.125 36.1016 21.8281V20.6562C36.1016 17.25 36.7344 14.25 38 11.6562C39.2656 9.0625 41.0547 7.03906 43.3672 5.58594C45.6953 4.11719 48.4453 3.38281 51.6172 3.38281C54.0703 3.38281 56.375 3.71875 58.5312 4.39062C60.6875 5.0625 62.5625 6.07031 64.1562 7.41406V14.9844H59.0938L58.1328 10.4141C57.5234 9.88281 56.7031 9.46094 55.6719 9.14844C54.6406 8.82031 53.4609 8.65625 52.1328 8.65625C50.2266 8.65625 48.5781 9.16406 47.1875 10.1797C45.8125 11.1797 44.7578 12.5781 44.0234 14.375C43.2891 16.1562 42.9219 18.2344 42.9219 20.6094V21.8281C42.9219 24.1406 43.2812 26.1562 44 27.875C44.7344 29.5781 45.8047 30.8984 47.2109 31.8359C48.6172 32.7734 50.3438 33.2422 52.3906 33.2422C53.5938 33.2422 54.6953 33.1328 55.6953 32.9141C56.7109 32.6797 57.5469 32.3984 58.2031 32.0703V26.2812L53.3281 25.9062V21.1016H65.0703V34.9062C63.5547 35.9844 61.7266 36.8516 59.5859 37.5078C57.4609 38.1641 54.9922 38.4922 52.1797 38.4922ZM69.1953 38V33.8984L72.4766 33.1953V17.4688L68.8438 16.7656V12.6406H78.8516L79.1094 15.7812L79.1562 16.3438C79.7812 14.9688 80.5547 13.9297 81.4766 13.2266C82.3984 12.5234 83.5 12.1719 84.7812 12.1719C85.1875 12.1719 85.6328 12.2109 86.1172 12.2891C86.6016 12.3516 87.0312 12.4375 87.4062 12.5469L86.6797 18.8516L83.2812 18.6641C82.3125 18.6172 81.5234 18.7812 80.9141 19.1562C80.3203 19.5312 79.7891 20.0703 79.3203 20.7734V33.1953L82.6016 33.8984V38H69.1953ZM97.4609 38.4922C94.9453 38.4922 92.9453 37.8203 91.4609 36.4766C89.9766 35.1172 89.2344 33.2734 89.2344 30.9453C89.2344 28.5547 90.2031 26.6172 92.1406 25.1328C94.0781 23.6328 96.9141 22.8828 100.648 22.8828H104V21.0078C104 19.7891 103.641 18.8047 102.922 18.0547C102.219 17.2891 101.156 16.9062 99.7344 16.9062C99 16.9062 98.3438 17 97.7656 17.1875C97.1875 17.3594 96.6562 17.6094 96.1719 17.9375L95.6328 21.2891H90.7109L90.6172 14.7031C91.9453 13.9531 93.3828 13.3438 94.9297 12.875C96.4766 12.4062 98.2031 12.1719 100.109 12.1719C103.422 12.1719 106.039 12.9453 107.961 14.4922C109.883 16.0234 110.844 18.2188 110.844 21.0781V31.5312C110.844 31.875 110.844 32.2188 110.844 32.5625C110.859 32.8906 110.891 33.2109 110.938 33.5234L113.586 33.8984V38H105.102C104.93 37.5625 104.758 37.0938 104.586 36.5938C104.414 36.0938 104.289 35.5938 104.211 35.0938C103.398 36.125 102.438 36.9531 101.328 37.5781C100.234 38.1875 98.9453 38.4922 97.4609 38.4922ZM99.2891 33.4297C100.242 33.4297 101.148 33.2188 102.008 32.7969C102.867 32.3594 103.531 31.7891 104 31.0859V27.0781H100.625C99.125 27.0781 97.9844 27.4219 97.2031 28.1094C96.4375 28.7969 96.0547 29.625 96.0547 30.5938C96.0547 31.5 96.3359 32.2031 96.8984 32.7031C97.4766 33.1875 98.2734 33.4297 99.2891 33.4297ZM125.773 38.4922C123.758 38.4922 122.023 37.9766 120.57 36.9453C119.133 35.8984 118.031 34.4453 117.266 32.5859C116.5 30.7109 116.117 28.5234 116.117 26.0234V25.5312C116.117 22.8594 116.5 20.5234 117.266 18.5234C118.047 16.5234 119.156 14.9688 120.594 13.8594C122.031 12.7344 123.75 12.1719 125.75 12.1719C127.141 12.1719 128.359 12.4531 129.406 13.0156C130.453 13.5625 131.359 14.3438 132.125 15.3594V6.26562L128.469 5.5625V1.4375H132.125H138.969V33.1953L142.25 33.8984V38H133.039L132.523 34.9062C131.727 36.0781 130.773 36.9688 129.664 37.5781C128.57 38.1875 127.273 38.4922 125.773 38.4922ZM127.812 33.1719C128.766 33.1719 129.602 32.9688 130.32 32.5625C131.039 32.1562 131.641 31.5703 132.125 30.8047V20.0469C131.656 19.2344 131.062 18.6094 130.344 18.1719C129.625 17.7188 128.797 17.4922 127.859 17.4922C126.719 17.4922 125.781 17.8359 125.047 18.5234C124.328 19.1953 123.797 20.1328 123.453 21.3359C123.125 22.5391 122.961 23.9375 122.961 25.5312V26.0234C122.961 28.2422 123.336 29.9922 124.086 31.2734C124.836 32.5391 126.078 33.1719 127.812 33.1719ZM156.523 38.4922C154.102 38.4922 151.984 37.9609 150.172 36.8984C148.359 35.8203 146.953 34.3438 145.953 32.4688C144.969 30.5938 144.477 28.4531 144.477 26.0469V25.1094C144.477 22.5938 144.945 20.3672 145.883 18.4297C146.82 16.4766 148.141 14.9453 149.844 13.8359C151.562 12.7266 153.586 12.1719 155.914 12.1719C158.211 12.1719 160.141 12.625 161.703 13.5312C163.266 14.4375 164.453 15.7422 165.266 17.4453C166.078 19.1484 166.484 21.2109 166.484 23.6328V27.3594H151.578L151.531 27.5C151.625 28.6094 151.898 29.6016 152.352 30.4766C152.82 31.3359 153.477 32.0156 154.32 32.5156C155.164 33 156.188 33.2422 157.391 33.2422C158.641 33.2422 159.805 33.0859 160.883 32.7734C161.977 32.4453 163.039 31.9688 164.07 31.3438L165.922 35.5625C164.875 36.4062 163.555 37.1094 161.961 37.6719C160.383 38.2188 158.57 38.4922 156.523 38.4922ZM151.625 22.8359H160.086V22.2266C160.086 21.1953 159.945 20.3125 159.664 19.5781C159.398 18.8281 158.961 18.25 158.352 17.8438C157.758 17.4375 156.984 17.2344 156.031 17.2344C155.125 17.2344 154.359 17.4766 153.734 17.9609C153.109 18.4297 152.617 19.0781 152.258 19.9062C151.914 20.7344 151.68 21.6719 151.555 22.7188L151.625 22.8359Z" fill="black"/>
<path d="M179.793 149.752C179.793 149.881 179.758 150.01 179.688 150.139C179.617 150.256 179.529 150.367 179.424 150.473C179.318 150.566 179.201 150.648 179.072 150.719C178.943 150.777 178.82 150.807 178.703 150.807C178.621 150.807 178.539 150.801 178.457 150.789C178.375 150.777 178.293 150.771 178.211 150.771C178.105 150.771 178.035 150.807 178 150.877C177.965 150.936 177.93 151 177.895 151.07C177.871 151.141 177.83 151.205 177.771 151.264C177.713 151.334 177.607 151.369 177.455 151.369C177.361 151.369 177.262 151.357 177.156 151.334C177.051 151.311 176.945 151.299 176.84 151.299C176.617 151.299 176.4 151.34 176.189 151.422C175.99 151.516 175.773 151.562 175.539 151.562C175.34 151.562 175.041 151.527 174.643 151.457C174.244 151.398 173.84 151.299 173.43 151.158C173.031 151.029 172.68 150.871 172.375 150.684C172.07 150.484 171.918 150.256 171.918 149.998C171.918 149.799 172.029 149.6 172.252 149.4C172.486 149.189 172.744 148.961 173.025 148.715C173.307 148.457 173.559 148.17 173.781 147.854C174.016 147.537 174.133 147.168 174.133 146.746C174.133 146.5 174.08 146.26 173.975 146.025C173.881 145.791 173.758 145.574 173.605 145.375C173.453 145.164 173.277 144.971 173.078 144.795C172.891 144.619 172.709 144.455 172.533 144.303C172.475 144.279 172.387 144.268 172.27 144.268C171.953 144.268 171.637 144.303 171.32 144.373C171.004 144.432 170.688 144.461 170.371 144.461C170.207 144.461 170.037 144.438 169.861 144.391C169.697 144.344 169.586 144.227 169.527 144.039C169.223 144.191 168.918 144.338 168.613 144.479C168.309 144.607 167.998 144.725 167.682 144.83C167.482 144.9 167.336 144.953 167.242 144.988C167.16 145.023 167.096 145.064 167.049 145.111C167.014 145.158 166.984 145.229 166.961 145.322C166.949 145.416 166.908 145.551 166.838 145.727C166.791 145.844 166.768 145.949 166.768 146.043C166.768 146.137 166.768 146.242 166.768 146.359C166.768 146.512 166.738 146.635 166.68 146.729C166.621 146.811 166.557 146.893 166.486 146.975C166.428 147.045 166.369 147.121 166.311 147.203C166.252 147.285 166.223 147.391 166.223 147.52C166.223 147.625 166.24 147.719 166.275 147.801L166.258 147.889C166.258 148.064 166.305 148.205 166.398 148.311C166.492 148.404 166.604 148.48 166.732 148.539C166.873 148.586 167.02 148.633 167.172 148.68C167.324 148.727 167.459 148.785 167.576 148.855C167.693 148.926 167.805 149.043 167.91 149.207C168.027 149.359 168.127 149.529 168.209 149.717C168.303 149.893 168.379 150.074 168.438 150.262C168.496 150.438 168.525 150.59 168.525 150.719V150.807H168.297C167.828 150.807 167.359 150.83 166.891 150.877C166.434 150.912 165.977 150.953 165.52 151C165.062 151.059 164.6 151.105 164.131 151.141C163.674 151.188 163.211 151.211 162.742 151.211C162.578 151.211 162.338 151.205 162.021 151.193C161.717 151.182 161.412 151.146 161.107 151.088C160.803 151.041 160.533 150.959 160.299 150.842C160.076 150.713 159.965 150.531 159.965 150.297C159.965 150.051 160.018 149.846 160.123 149.682C160.24 149.518 160.387 149.383 160.562 149.277C160.75 149.16 160.955 149.066 161.178 148.996C161.412 148.914 161.641 148.838 161.863 148.768C162.098 148.697 162.314 148.627 162.514 148.557C162.725 148.486 162.9 148.393 163.041 148.275C163.182 148.158 163.299 147.971 163.393 147.713C163.486 147.443 163.562 147.156 163.621 146.852C163.68 146.547 163.732 146.248 163.779 145.955C163.826 145.65 163.867 145.41 163.902 145.234C163.914 145.176 163.92 145.105 163.92 145.023C163.932 144.93 163.938 144.836 163.938 144.742C163.949 144.648 163.955 144.561 163.955 144.479C163.967 144.396 163.984 144.338 164.008 144.303C164.125 144.104 164.213 143.986 164.271 143.951C164.342 143.916 164.389 143.887 164.412 143.863C164.447 143.84 164.465 143.781 164.465 143.688C164.477 143.582 164.482 143.371 164.482 143.055C164.482 142.914 164.512 142.809 164.57 142.738C164.629 142.656 164.688 142.586 164.746 142.527C164.816 142.469 164.881 142.416 164.939 142.369C164.998 142.311 165.027 142.234 165.027 142.141C165.027 141.977 164.98 141.83 164.887 141.701C164.793 141.561 164.746 141.408 164.746 141.244C164.746 141.15 164.77 141.068 164.816 140.998C164.863 140.928 164.916 140.863 164.975 140.805C165.045 140.746 165.104 140.688 165.15 140.629C165.197 140.559 165.221 140.477 165.221 140.383C165.221 140.254 165.191 140.125 165.133 139.996C165.086 139.867 165.062 139.738 165.062 139.609C165.062 139.516 165.092 139.451 165.15 139.416C165.221 139.369 165.291 139.334 165.361 139.311C165.443 139.287 165.514 139.27 165.572 139.258C165.643 139.234 165.678 139.205 165.678 139.17C165.643 139.1 165.578 139.064 165.484 139.064C165.344 139.064 165.273 139.141 165.273 139.293C165.191 139.234 165.121 139.17 165.062 139.1C165.004 139.018 164.975 138.93 164.975 138.836C164.975 138.719 165.004 138.613 165.062 138.52C165.121 138.414 165.186 138.297 165.256 138.168C165.338 138.039 165.408 137.893 165.467 137.729C165.525 137.564 165.555 137.365 165.555 137.131C165.555 136.885 165.52 136.65 165.449 136.428C165.379 136.193 165.344 135.959 165.344 135.725C165.344 135.607 165.367 135.49 165.414 135.373C165.473 135.256 165.537 135.145 165.607 135.039C165.689 134.922 165.766 134.811 165.836 134.705C165.918 134.588 165.977 134.465 166.012 134.336C166.082 134.113 166.117 133.879 166.117 133.633C166.129 133.387 166.135 133.141 166.135 132.895C166.146 132.648 166.164 132.408 166.188 132.174C166.223 131.928 166.299 131.699 166.416 131.488C166.521 131.301 166.604 131.148 166.662 131.031C166.721 130.914 166.773 130.803 166.82 130.697C166.867 130.58 166.908 130.457 166.943 130.328C166.979 130.188 167.014 130.006 167.049 129.783C167.107 129.443 167.195 129.115 167.312 128.799C167.441 128.482 167.529 128.154 167.576 127.814C167.6 127.557 167.611 127.34 167.611 127.164C167.623 126.977 167.652 126.812 167.699 126.672C167.758 126.531 167.852 126.408 167.98 126.303C168.121 126.197 168.332 126.092 168.613 125.986C168.918 125.881 169.223 125.811 169.527 125.775C169.832 125.729 170.137 125.705 170.441 125.705C170.793 125.705 171.156 125.723 171.531 125.758C171.566 125.957 171.643 126.139 171.76 126.303C171.877 126.455 172 126.607 172.129 126.76C172.27 126.912 172.398 127.07 172.516 127.234C172.645 127.387 172.732 127.562 172.779 127.762C172.838 128.031 172.873 128.289 172.885 128.535C172.908 128.77 173.008 129.004 173.184 129.238C173.266 129.367 173.307 129.52 173.307 129.695C173.307 129.965 173.271 130.223 173.201 130.469C173.131 130.715 173.096 130.967 173.096 131.225C173.096 131.377 173.143 131.629 173.236 131.98C173.33 132.332 173.441 132.713 173.57 133.123C173.699 133.521 173.822 133.914 173.939 134.301C174.057 134.676 174.145 134.969 174.203 135.18C174.309 135.625 174.361 136.082 174.361 136.551C174.373 137.02 174.449 137.477 174.59 137.922C174.73 138.391 174.854 138.859 174.959 139.328C175.064 139.785 175.135 140.26 175.17 140.752C175.193 141.209 175.252 141.654 175.346 142.088C175.439 142.51 175.539 142.938 175.645 143.371C175.75 143.793 175.844 144.221 175.926 144.654C176.02 145.088 176.066 145.539 176.066 146.008C176.066 146.184 176.049 146.365 176.014 146.553C175.99 146.74 175.914 146.904 175.785 147.045C176.031 147.338 176.307 147.654 176.611 147.994C176.928 148.334 177.238 148.604 177.543 148.803C177.66 148.873 177.842 148.926 178.088 148.961C178.334 148.996 178.58 149.043 178.826 149.102C179.084 149.148 179.307 149.225 179.494 149.33C179.693 149.424 179.793 149.564 179.793 149.752ZM172.428 140.277C172.428 140.172 172.387 140.037 172.305 139.873C172.223 139.697 172.129 139.504 172.023 139.293C171.93 139.082 171.842 138.854 171.76 138.607C171.678 138.361 171.637 138.104 171.637 137.834C171.637 137.518 171.59 137.207 171.496 136.902C171.402 136.586 171.338 136.27 171.303 135.953C171.279 135.695 171.25 135.414 171.215 135.109C171.191 134.793 171.133 134.5 171.039 134.23C170.945 133.949 170.799 133.721 170.6 133.545C170.412 133.357 170.137 133.264 169.773 133.264C169.75 133.357 169.709 133.428 169.65 133.475C169.592 133.51 169.521 133.545 169.439 133.58C169.369 133.604 169.293 133.627 169.211 133.65C169.129 133.674 169.064 133.715 169.018 133.773C169.029 133.809 169.035 133.861 169.035 133.932C169.035 134.143 168.988 134.342 168.895 134.529C168.812 134.705 168.736 134.887 168.666 135.074C168.584 135.273 168.525 135.484 168.49 135.707C168.467 135.918 168.455 136.129 168.455 136.34C168.455 136.527 168.461 136.709 168.473 136.885C168.484 137.061 168.49 137.236 168.49 137.412C168.49 137.682 168.467 137.916 168.42 138.115C168.373 138.303 168.32 138.479 168.262 138.643C168.203 138.807 168.15 138.965 168.104 139.117C168.057 139.258 168.033 139.41 168.033 139.574C168.033 139.926 168.045 140.23 168.068 140.488C168.092 140.746 168.145 140.963 168.227 141.139C168.309 141.303 168.426 141.432 168.578 141.525C168.73 141.607 168.941 141.648 169.211 141.648C169.398 141.648 169.668 141.625 170.02 141.578C170.383 141.531 170.74 141.455 171.092 141.35C171.455 141.232 171.766 141.086 172.023 140.91C172.293 140.734 172.428 140.523 172.428 140.277ZM196.527 138.15C196.527 138.561 196.398 138.859 196.141 139.047C195.883 139.234 195.566 139.328 195.191 139.328C195.016 139.328 194.84 139.287 194.664 139.205C194.5 139.123 194.318 139.082 194.119 139.082C193.908 139.082 193.697 139.1 193.486 139.135C193.287 139.17 193.094 139.211 192.906 139.258C192.719 139.293 192.549 139.328 192.396 139.363C192.244 139.398 192.121 139.416 192.027 139.416C191.875 139.416 191.734 139.404 191.605 139.381C191.477 139.346 191.342 139.328 191.201 139.328C191.037 139.328 190.896 139.393 190.779 139.521C190.674 139.65 190.586 139.809 190.516 139.996C190.445 140.172 190.393 140.359 190.357 140.559C190.322 140.746 190.305 140.904 190.305 141.033C190.305 141.186 190.322 141.32 190.357 141.438C190.404 141.555 190.445 141.672 190.48 141.789C190.527 141.906 190.568 142.041 190.604 142.193C190.65 142.346 190.674 142.533 190.674 142.756C190.674 142.896 190.668 143.037 190.656 143.178C190.656 143.318 190.656 143.453 190.656 143.582C190.656 143.805 190.68 144.027 190.727 144.25C190.773 144.461 190.797 144.684 190.797 144.918C190.797 145.129 190.744 145.322 190.639 145.498C190.533 145.662 190.393 145.803 190.217 145.92C190.053 146.025 189.871 146.107 189.672 146.166C189.473 146.225 189.285 146.254 189.109 146.254C188.969 146.254 188.816 146.23 188.652 146.184C188.488 146.137 188.33 146.072 188.178 145.99C188.025 145.908 187.896 145.809 187.791 145.691C187.697 145.574 187.65 145.445 187.65 145.305C187.65 145.223 187.656 145.146 187.668 145.076C187.691 145.006 187.703 144.93 187.703 144.848C187.703 144.719 187.68 144.596 187.633 144.479C187.586 144.35 187.562 144.221 187.562 144.092C187.562 143.857 187.592 143.629 187.65 143.406C187.709 143.184 187.75 142.955 187.773 142.721C187.82 142.346 187.844 141.971 187.844 141.596C187.844 141.209 187.844 140.828 187.844 140.453C187.844 140.336 187.82 140.189 187.773 140.014C187.738 139.838 187.68 139.674 187.598 139.521C187.516 139.357 187.41 139.223 187.281 139.117C187.164 139 187.029 138.941 186.877 138.941C186.736 138.941 186.596 138.971 186.455 139.029C186.314 139.076 186.174 139.135 186.033 139.205C185.893 139.264 185.752 139.322 185.611 139.381C185.471 139.428 185.33 139.451 185.189 139.451C185.119 139.451 185.043 139.428 184.961 139.381C184.891 139.322 184.809 139.293 184.715 139.293C184.48 139.293 184.246 139.34 184.012 139.434C183.777 139.516 183.531 139.557 183.273 139.557C183.098 139.557 182.869 139.533 182.588 139.486C182.318 139.428 182.055 139.346 181.797 139.24C181.539 139.135 181.316 139 181.129 138.836C180.953 138.66 180.865 138.455 180.865 138.221C180.865 138.01 180.936 137.816 181.076 137.641C181.217 137.453 181.387 137.295 181.586 137.166C181.797 137.025 182.02 136.92 182.254 136.85C182.488 136.779 182.699 136.744 182.887 136.744C183.25 136.744 183.607 136.803 183.959 136.92C184.322 137.037 184.686 137.096 185.049 137.096C185.33 137.096 185.605 137.055 185.875 136.973C186.156 136.891 186.432 136.85 186.701 136.85C186.83 136.85 186.947 136.873 187.053 136.92C187.158 136.967 187.27 136.99 187.387 136.99C187.469 136.99 187.562 136.949 187.668 136.867C187.773 136.785 187.867 136.691 187.949 136.586C188.031 136.469 188.102 136.352 188.16 136.234C188.219 136.105 188.248 136 188.248 135.918C188.248 135.812 188.213 135.707 188.143 135.602C188.072 135.484 188.037 135.361 188.037 135.232C188.037 135.127 188.061 135.027 188.107 134.934C188.154 134.828 188.178 134.723 188.178 134.617C188.178 134.523 188.154 134.447 188.107 134.389C188.061 134.318 188.002 134.254 187.932 134.195C187.873 134.125 187.82 134.061 187.773 134.002C187.727 133.943 187.703 133.873 187.703 133.791C187.703 133.686 187.744 133.592 187.826 133.51C187.908 133.428 187.949 133.328 187.949 133.211C187.949 133.07 187.908 132.936 187.826 132.807C187.744 132.678 187.703 132.514 187.703 132.314C187.703 132.174 187.721 132.021 187.756 131.857C187.803 131.682 187.867 131.523 187.949 131.383C188.031 131.23 188.137 131.107 188.266 131.014C188.395 130.92 188.541 130.873 188.705 130.873C189.021 130.873 189.279 130.926 189.479 131.031C189.678 131.137 189.836 131.277 189.953 131.453C190.07 131.629 190.146 131.84 190.182 132.086C190.229 132.32 190.252 132.566 190.252 132.824C190.252 132.93 190.229 133.035 190.182 133.141C190.135 133.246 190.111 133.357 190.111 133.475C190.111 133.58 190.141 133.674 190.199 133.756C190.27 133.838 190.305 133.943 190.305 134.072C190.305 134.26 190.258 134.436 190.164 134.6C190.082 134.764 190.041 134.939 190.041 135.127C190.041 135.49 190.1 135.836 190.217 136.164C190.346 136.48 190.48 136.791 190.621 137.096L190.727 137.148C190.855 137.148 190.99 137.125 191.131 137.078C191.271 137.02 191.412 136.99 191.553 136.99C191.787 136.99 192.021 137.02 192.256 137.078C192.49 137.125 192.736 137.148 192.994 137.148C193.252 137.148 193.498 137.113 193.732 137.043C193.967 136.961 194.213 136.92 194.471 136.92C194.553 136.92 194.688 136.938 194.875 136.973C195.062 136.996 195.262 137.031 195.473 137.078C195.684 137.125 195.877 137.184 196.053 137.254C196.229 137.312 196.34 137.371 196.387 137.43C196.457 137.523 196.498 137.646 196.51 137.799C196.521 137.939 196.527 138.057 196.527 138.15Z" fill="white"/>
</g>
<defs>
<clipPath id="clip0_1_2">
<rect width="200" height="200" fill="white"/>
</clipPath>
</defs>
</svg>
